<?xml version="1.0" standalone="no"?>
<!DOCTYPE svg PUBLIC "-//W3C//DTD SVG 20010904//EN"
 "http://www.w3.org/TR/2001/REC-SVG-20010904/DTD/svg10.dtd">
<svg version="1.0" xmlns="http://www.w3.org/2000/svg"
 width="3333.000000pt" height="3333.000000pt" viewBox="0 0 3333.000000 3333.000000"
 preserveAspectRatio="xMidYMid meet">

<g transform="translate(0.000000,3333.000000) scale(0.100000,-0.100000)"
fill="#000000" stroke="none">
<path d="M1544 32498 c32 -694 253 -1426 707 -2338 540 -1085 1247 -2156 2875
-4362 l352 -477 -235 -332 c-1256 -1775 -2023 -2998 -2597 -4139 -645 -1279
-985 -2322 -1081 -3315 -117 -1199 195 -2493 981 -4075 594 -1197 1401 -2465
2741 -4308 101 -139 186 -259 189 -266 3 -9 -117 -184 -298 -433 -1130 -1553
-1686 -2359 -2200 -3183 -663 -1064 -1083 -1939 -1288 -2686 -83 -304 -133
-605 -146 -883 l-7 -141 1046 0 1045 0 6 67 c33 384 145 746 401 1293 69 150
231 462 317 615 l34 60 2385 3 2385 2 102 -192 c286 -543 472 -1003 556 -1380
34 -151 56 -304 56 -395 l0 -73 1050 0 c993 0 1050 1 1050 18 0 9 -5 94 -10
187 -35 577 -195 1166 -515 1895 -86 194 -340 699 -470 930 -294 524 -723
1202 -1173 1853 l-151 217 8380 0 c6564 0 8385 3 8402 12 12 7 69 16 127 20
108 7 200 19 305 38 33 6 78 13 100 16 22 4 44 10 50 15 5 5 26 9 46 9 21 0
40 4 43 9 3 5 22 12 41 15 19 3 51 9 70 12 19 3 38 10 41 15 3 5 15 9 28 9 12
0 26 3 30 7 6 7 42 20 126 49 25 8 54 19 65 23 11 5 31 13 45 18 14 6 54 24
89 42 35 17 70 31 77 31 7 0 14 3 16 8 2 4 26 18 53 32 28 14 52 27 55 30 3 3
28 16 55 30 56 27 273 172 351 234 28 23 66 52 84 66 112 83 411 388 479 489
14 20 27 38 30 41 34 29 223 311 237 352 4 10 10 18 15 18 5 0 9 9 9 20 0 11
3 20 8 20 4 0 15 17 24 37 10 21 24 49 33 63 8 14 28 57 45 95 17 39 35 78 40
87 6 10 10 22 10 28 0 5 11 33 24 62 13 29 33 85 46 123 12 39 26 80 31 93 5
13 9 34 9 47 0 13 5 27 10 30 6 3 10 21 10 40 0 19 4 36 9 39 9 6 16 44 27
136 3 25 9 54 14 65 5 11 12 43 15 70 3 28 10 84 15 125 5 41 14 125 19 185 5
61 15 126 20 145 8 24 11 436 11 1306 0 1101 -2 1273 -15 1290 -8 10 -15 28
-15 39 0 23 -23 91 -33 101 -4 4 -7 18 -7 31 0 12 -4 23 -10 23 -5 0 -10 9
-10 20 0 11 -4 20 -10 20 -5 0 -10 7 -10 15 0 54 -212 309 -328 395 -77 57
-214 127 -307 158 -94 31 -156 43 -252 51 l-83 6 -4 1135 c-3 1094 -6 1207
-35 1315 -5 22 -13 52 -17 68 -3 15 -10 30 -15 33 -5 3 -9 13 -9 23 0 33 -107
231 -141 261 -3 3 -19 25 -36 50 -33 48 -100 114 -173 170 -25 19 -47 37 -50
40 -3 3 -16 11 -29 18 -13 8 -40 23 -60 35 -66 37 -171 87 -186 87 -7 0 -17 5
-20 10 -3 6 -19 10 -34 10 -15 0 -31 4 -37 9 -5 5 -29 12 -54 16 -59 10 -397
11 -435 1 -126 -30 -155 -41 -265 -94 -169 -81 -308 -190 -399 -312 -14 -19
-34 -44 -43 -54 -10 -11 -18 -25 -18 -32 0 -7 -4 -14 -8 -16 -9 -3 -79 -145
-105 -213 -34 -86 -54 -174 -64 -270 -4 -44 -8 -578 -8 -1187 l0 -1108 -2620
-4 c-1857 -2 -2642 -7 -2695 -15 -41 -6 -100 -13 -130 -17 -30 -3 -59 -10 -64
-15 -6 -5 -25 -9 -42 -9 -18 0 -36 -4 -39 -10 -3 -5 -19 -10 -35 -10 -16 0
-32 -4 -35 -10 -3 -5 -17 -10 -30 -10 -13 0 -27 -4 -30 -10 -3 -5 -17 -10 -31
-10 -13 0 -24 -4 -24 -10 0 -5 -9 -10 -20 -10 -11 0 -29 -4 -40 -10 -11 -5
-29 -14 -40 -20 -11 -5 -27 -10 -35 -10 -8 0 -15 -4 -15 -10 0 -5 -6 -10 -14
-10 -38 0 -334 -179 -418 -252 -14 -13 -46 -39 -69 -58 -66 -53 -163 -145
-394 -372 l-210 -207 -1733 -1 -1733 0 -163 163 c-201 200 -346 340 -409 392
-27 22 -60 50 -75 63 -23 20 -173 127 -220 157 -89 56 -161 95 -177 95 -8 0
-15 5 -15 10 0 6 -6 10 -14 10 -12 0 -44 14 -118 51 -10 5 -25 9 -33 9 -8 0
-23 4 -33 9 -47 24 -131 51 -160 51 -11 0 -23 4 -26 9 -3 5 -23 12 -43 15 -21
4 -63 11 -93 17 -162 30 -240 32 -1756 35 l-1551 4 39 76 c71 134 273 564 362
768 611 1398 841 2560 721 3644 -148 1331 -762 2830 -1923 4692 -266 427 -627
973 -920 1395 l-69 100 42 37 c23 20 59 46 81 58 21 12 50 30 64 39 14 9 39
23 55 30 17 7 38 17 47 22 10 5 30 9 46 9 15 0 32 4 38 9 5 5 32 12 59 15 28
4 86 11 130 17 213 27 606 31 3665 38 2180 6 3214 12 3255 19 135 24 261 67
359 123 10 6 35 20 55 31 93 52 230 175 299 267 15 20 35 45 45 55 9 11 17 25
17 32 0 7 3 14 8 16 13 6 82 155 103 223 6 22 15 49 20 60 51 130 51 469 0
590 -4 11 -14 38 -20 60 -13 41 -27 77 -42 107 -5 10 -9 25 -9 33 0 8 -4 15
-10 15 -5 0 -10 7 -10 15 0 9 -5 21 -10 28 -6 7 -26 37 -47 67 -74 113 -157
196 -314 313 -27 21 -72 46 -129 73 -30 14 -63 30 -72 35 -10 5 -27 9 -37 9
-11 0 -22 4 -25 9 -3 5 -18 11 -33 14 -16 4 -50 12 -78 18 -72 18 -6567 19
-6860 1 -258 -16 -386 -29 -585 -62 -36 -6 -85 -13 -110 -16 -25 -3 -49 -10
-54 -15 -6 -5 -27 -9 -47 -9 -21 0 -40 -4 -43 -9 -3 -5 -23 -11 -43 -14 -72
-11 -108 -20 -120 -29 -7 -6 -13 -8 -13 -4 0 3 80 117 178 253 1205 1675 1917
2786 2381 3713 458 917 668 1602 706 2303 l6 117 -1049 0 -1049 0 -6 -112
c-23 -395 -252 -1014 -640 -1728 l-84 -155 -2405 -3 -2406 -2 -18 27 c-44 68
-298 586 -373 763 -98 230 -209 557 -246 724 -28 126 -50 278 -61 409 l-6 77
-1045 0 -1046 0 7 -152z m6301 -3875 c-79 -122 -1055 -1501 -1095 -1546 -4 -5
-88 101 -186 235 -393 536 -954 1320 -954 1332 0 3 507 6 1126 6 l1126 0 -17
-27z m-924 -5283 c797 -1120 1416 -2087 1882 -2940 l85 -155 -2106 -3 c-1158
-1 -2107 0 -2109 2 -11 10 318 595 577 1026 267 444 469 761 855 1340 429 643
648 960 656 951 4 -3 76 -103 160 -221z m2848 -5342 c50 -237 67 -338 86 -515
17 -161 19 -427 5 -574 -21 -210 -90 -575 -147 -781 l-16 -58 -2963 0 c-1728
0 -2965 4 -2968 9 -11 17 -85 406 -100 522 -65 496 -27 896 145 1552 l10 37
2953 0 2953 0 42 -192z m-909 -3982 c0 -11 -214 -401 -348 -636 -323 -566
-768 -1276 -1200 -1915 -219 -322 -552 -804 -561 -809 -9 -6 -60 64 -351 479
-756 1078 -1346 2015 -1768 2808 l-41 77 2134 0 c1174 0 2135 -2 2135 -4z
m4992 -3158 c324 -320 429 -414 583 -523 39 -27 72 -52 75 -55 6 -6 41 -26 95
-54 22 -12 42 -23 45 -26 3 -3 16 -10 30 -16 14 -6 57 -26 95 -44 39 -18 81
-37 95 -42 14 -6 33 -14 42 -19 10 -5 26 -9 36 -9 10 0 22 -4 27 -8 6 -5 30
-14 55 -21 25 -7 59 -16 75 -21 108 -31 177 -45 310 -62 127 -17 3912 -17
4035 -1 122 17 187 29 255 48 33 9 74 20 90 25 50 13 129 40 147 50 10 6 24
10 32 10 8 0 31 9 53 19 21 10 81 40 133 65 144 70 287 160 355 223 11 10 45
38 75 63 30 25 68 56 85 70 16 14 138 132 270 262 l240 238 3060 0 3060 0 -7
-242 c-16 -535 -29 -867 -38 -948 -5 -47 -12 -110 -16 -140 -3 -30 -10 -59
-15 -64 -5 -6 -9 -25 -9 -42 0 -18 -4 -36 -10 -39 -5 -3 -10 -17 -10 -30 0
-13 -4 -27 -10 -30 -5 -3 -10 -15 -10 -26 0 -10 -4 -19 -9 -19 -5 0 -11 -8
-14 -17 -6 -18 -37 -73 -47 -83 -3 -3 -16 -21 -30 -40 -36 -52 -69 -89 -125
-143 -53 -52 -157 -127 -174 -127 -6 0 -11 -4 -11 -8 0 -5 -16 -14 -35 -22
-19 -8 -35 -17 -35 -22 0 -4 -11 -8 -24 -8 -14 0 -28 -4 -31 -10 -3 -5 -19
-10 -35 -10 -16 0 -32 -4 -35 -10 -3 -5 -28 -10 -54 -10 -26 0 -51 -4 -56 -9
-11 -11 -67 -15 -395 -33 -325 -17 -16944 -17 -17270 0 -281 15 -487 37 -505
53 -5 5 -22 9 -37 9 -16 0 -36 4 -46 9 -9 5 -32 16 -49 23 -18 7 -35 18 -37
24 -2 6 39 71 92 145 395 556 852 1220 1112 1616 l165 252 2091 0 2092 1 174
-172z m-6810 -4088 c289 -399 547 -759 736 -1027 l122 -173 -1125 0 c-619 0
-1125 2 -1125 4 0 11 598 856 1071 1513 24 34 47 59 50 55 4 -4 125 -171 271
-372z"/>
<path d="M20510 27525 c-7 -8 -24 -15 -38 -15 -52 0 -280 -88 -290 -112 -2 -5
-8 -8 -13 -8 -55 0 -379 -308 -379 -359 0 -6 -4 -11 -8 -11 -5 0 -14 -16 -22
-35 -8 -19 -17 -35 -22 -35 -4 0 -8 -9 -8 -20 0 -11 -4 -20 -10 -20 -5 0 -10
-9 -10 -19 0 -11 -4 -23 -10 -26 -5 -3 -10 -17 -10 -31 0 -13 -4 -24 -10 -24
-5 0 -10 -10 -10 -23 0 -13 -4 -27 -8 -32 -5 -6 -17 -41 -28 -80 -19 -68 -19
-157 -19 -3535 0 -3338 1 -3468 19 -3543 10 -42 22 -80 27 -83 5 -3 9 -16 9
-29 0 -13 5 -27 10 -30 6 -3 10 -17 10 -31 0 -13 5 -24 10 -24 6 0 10 -6 10
-14 0 -18 60 -130 72 -134 4 -2 8 -10 8 -18 0 -8 10 -26 23 -40 119 -133 159
-175 200 -209 27 -22 55 -46 62 -52 7 -7 18 -13 24 -13 6 0 11 -3 11 -7 0 -5
10 -13 23 -19 12 -7 58 -30 102 -53 44 -22 86 -41 93 -41 7 0 20 -4 30 -9 16
-9 51 -19 140 -40 89 -22 226 -30 331 -20 58 6 114 15 123 20 10 5 28 9 40 9
25 1 153 42 165 53 3 4 15 7 25 7 10 0 18 5 18 10 0 6 8 10 18 10 9 0 28 9 42
20 14 11 31 20 38 20 6 0 12 3 12 8 0 4 12 13 28 20 42 19 89 59 182 153 85
87 150 162 150 174 0 4 14 27 30 52 17 24 30 48 30 53 0 5 9 25 20 45 11 20
20 44 20 55 0 10 5 22 10 25 6 3 10 17 10 30 0 13 5 27 10 30 6 3 10 21 10 40
0 19 4 36 8 39 5 3 13 45 18 93 11 113 11 6770 0 6881 -5 45 -13 85 -17 88 -5
3 -9 20 -9 39 0 19 -4 37 -10 40 -5 3 -10 17 -10 30 0 13 -4 27 -10 30 -5 3
-10 13 -10 21 0 8 -9 34 -20 56 -11 23 -20 48 -20 55 0 7 -4 13 -8 13 -5 0
-22 24 -37 53 -16 28 -39 63 -52 77 -13 14 -23 28 -23 32 0 24 -260 258 -287
258 -7 0 -13 4 -13 8 0 5 -16 14 -35 22 -19 8 -35 17 -35 22 0 4 -7 8 -15 8
-8 0 -30 9 -50 20 -20 11 -44 20 -55 20 -10 0 -22 5 -25 10 -3 6 -17 10 -30
10 -13 0 -27 5 -30 10 -3 6 -21 10 -39 10 -18 0 -41 7 -52 15 -29 22 -416 22
-434 0z"/>
<path d="M23870 25340 c-8 -5 -34 -10 -57 -10 -23 0 -45 -4 -48 -10 -3 -5 -19
-10 -36 -10 -16 0 -38 -4 -49 -10 -11 -5 -29 -14 -40 -20 -11 -5 -27 -10 -35
-10 -8 0 -15 -4 -15 -10 0 -5 -6 -10 -13 -10 -47 0 -241 -132 -343 -234 -74
-74 -194 -233 -194 -256 0 -6 -4 -10 -10 -10 -5 0 -10 -9 -10 -20 0 -11 -4
-20 -10 -20 -5 0 -10 -9 -10 -19 0 -11 -4 -23 -10 -26 -5 -3 -10 -17 -10 -31
0 -13 -4 -24 -10 -24 -5 0 -10 -13 -10 -29 0 -17 -4 -32 -9 -35 -10 -6 -15
-36 -34 -171 -14 -107 -17 -4544 -3 -4683 5 -45 13 -85 17 -88 5 -3 9 -20 9
-39 0 -19 5 -37 10 -40 6 -3 10 -17 10 -30 0 -13 5 -27 10 -30 6 -3 10 -15 10
-25 0 -11 9 -35 20 -55 11 -20 20 -40 20 -44 0 -11 54 -95 102 -161 32 -44
173 -190 213 -220 51 -39 115 -80 124 -80 6 0 11 -3 11 -7 0 -9 49 -33 67 -33
7 0 13 -4 13 -10 0 -5 8 -10 18 -10 10 0 22 -3 25 -7 12 -11 140 -52 165 -53
12 0 30 -4 40 -9 9 -5 65 -14 123 -20 104 -10 240 -2 329 19 77 18 126 32 142
41 10 5 23 9 30 9 7 0 49 19 93 41 44 23 90 46 102 53 13 6 23 14 23 19 0 4 7
7 15 7 8 0 15 4 15 8 0 4 13 15 29 25 31 18 180 167 208 208 10 13 25 33 35
43 10 11 18 26 18 33 0 7 3 13 8 13 4 0 12 10 18 23 6 12 21 42 34 67 12 25
26 53 31 62 5 10 9 27 9 38 0 11 5 20 10 20 6 0 10 11 10 24 0 14 4 27 9 30 5
3 17 41 27 83 18 75 19 176 19 2433 0 2486 2 2384 -43 2525 -9 28 -20 54 -24
60 -4 5 -8 19 -8 32 0 13 -4 23 -10 23 -5 0 -10 9 -10 20 0 11 -4 20 -10 20
-5 0 -10 7 -10 15 0 18 -18 51 -42 79 -10 11 -18 25 -18 31 0 7 -9 20 -20 30
-11 10 -20 23 -20 29 0 6 -39 51 -87 99 -124 126 -267 221 -433 289 -14 6 -33
14 -42 19 -10 5 -29 9 -42 9 -14 0 -28 5 -31 10 -3 6 -28 10 -55 10 -27 0 -52
5 -55 10 -8 13 -285 13 -305 0z"/>
<path d="M27115 23138 c-83 -20 -121 -31 -152 -44 -17 -8 -34 -14 -38 -14 -26
0 -252 -123 -275 -149 -3 -4 -23 -19 -45 -36 -47 -35 -127 -116 -164 -165 -14
-19 -34 -44 -43 -54 -10 -11 -18 -25 -18 -32 0 -7 -4 -14 -8 -16 -10 -4 -92
-167 -92 -182 0 -6 -6 -22 -13 -36 -11 -23 -23 -59 -43 -130 -22 -82 -27 -269
-31 -1280 -3 -768 -1 -1140 7 -1220 11 -123 41 -265 65 -313 8 -17 15 -38 15
-49 0 -10 5 -18 10 -18 6 0 10 -7 10 -15 0 -8 9 -31 21 -52 12 -21 31 -56 42
-78 27 -49 37 -62 112 -144 74 -83 132 -137 168 -159 15 -9 27 -20 27 -24 0
-4 7 -8 15 -8 8 0 15 -3 15 -7 0 -5 10 -13 23 -19 12 -7 58 -30 102 -53 44
-22 88 -41 97 -41 9 0 20 -4 23 -10 3 -5 17 -10 30 -10 13 0 27 -4 30 -10 3
-5 18 -10 32 -10 15 0 40 -4 57 -9 70 -21 219 -30 325 -20 58 6 114 15 123 20
10 5 31 9 47 9 17 0 33 5 36 10 3 6 17 10 30 10 13 0 27 5 30 10 3 6 14 10 25
10 16 0 42 11 123 51 29 15 62 34 67 39 3 3 17 12 31 20 73 41 248 206 284
268 11 17 23 32 27 32 4 0 8 5 8 11 0 6 13 29 29 52 32 48 81 151 81 172 0 7
5 17 10 20 6 3 10 17 10 30 0 13 4 26 9 29 5 3 11 23 15 43 3 21 11 76 18 123
10 65 13 354 13 1240 0 1095 -3 1254 -26 1343 -21 84 -33 123 -41 132 -4 5 -8
16 -8 25 0 32 -107 229 -140 260 -3 3 -17 21 -29 40 -66 97 -237 235 -381 306
-97 47 -172 73 -303 103 -57 13 -336 12 -392 -1z"/>
</g>
</svg>
