<?xml version="1.0" standalone="no"?>
<!DOCTYPE svg PUBLIC "-//W3C//DTD SVG 20010904//EN"
 "http://www.w3.org/TR/2001/REC-SVG-20010904/DTD/svg10.dtd">
<svg version="1.0" xmlns="http://www.w3.org/2000/svg"
 width="3333.000000pt" height="3333.000000pt" viewBox="0 0 3333.000000 3333.000000"
 preserveAspectRatio="xMidYMid meet">

<g transform="translate(0.000000,3333.000000) scale(0.100000,-0.100000)"
fill="#000000" stroke="none">
<path d="M4430 29479 c-431 -45 -896 -241 -1224 -518 -445 -375 -720 -864
-813 -1441 -17 -111 -18 -408 -18 -8340 0 -7869 1 -8230 18 -8340 64 -406 223
-775 476 -1100 137 -177 379 -394 584 -524 277 -175 632 -298 972 -336 59 -6
1518 -10 4228 -10 2275 0 4137 -4 4137 -8 0 -7 -125 -526 -353 -1467 -58 -236
-148 -610 -202 -830 -53 -220 -121 -499 -150 -620 -30 -121 -99 -409 -155
-640 -56 -231 -112 -460 -124 -510 l-22 -90 -704 -6 c-733 -5 -718 -5 -860
-51 -192 -62 -386 -208 -500 -377 -180 -268 -220 -611 -105 -911 110 -287 351
-509 646 -594 164 -48 -426 -45 9661 -46 8424 0 9460 2 9565 15 414 54 735
213 1013 502 220 228 358 490 428 812 l27 126 0 5920 0 5920 -23 115 c-44 218
-130 434 -236 594 l-46 69 -3 5291 c-3 5676 0 5341 -47 5566 -52 246 -171 545
-300 750 -179 286 -423 535 -710 722 -292 192 -674 325 -1025 358 -138 13
-24009 12 -24135 -1z m24052 -1997 c73 -36 123 -86 160 -161 l23 -46 3 -4902
2 -4903 -3157 0 c-3424 0 -3239 3 -3453 -54 -383 -101 -713 -335 -939 -665
-95 -139 -179 -318 -221 -467 -54 -191 -53 -178 -59 -859 l-6 -640 -8245 0
-8245 0 0 6235 0 6235 29 62 c47 102 133 172 240 193 23 4 5387 7 11921 6
l11880 -1 67 -33z m503 -12342 l0 -355 -3087 -3 -3088 -2 0 360 0 360 3088 -2
3087 -3 0 -355z m-8150 -3315 l0 -980 -8120 0 -8120 0 -53 24 c-65 29 -153
122 -178 188 -18 45 -19 99 -22 887 -1 462 0 846 2 853 5 11 1426 13 8248 11
l8243 -3 0 -980z m8153 -1272 l2 -2253 -3090 0 -3090 0 0 2255 0 2255 3088 -2
3087 -3 3 -2252z m-10793 -1705 c16 -67 216 -895 490 -2023 251 -1037 383
-1582 446 -1840 33 -137 62 -258 65 -267 5 -17 -127 -18 -2685 -18 -1620 0
-2691 4 -2691 9 0 9 23 104 231 961 143 588 469 1936 699 2885 39 160 72 296
75 303 3 9 350 12 1684 12 l1681 0 5 -22z m2642 -1238 c1 -769 -2 -1247 -8
-1235 -5 11 -33 121 -63 245 -70 295 -220 913 -306 1265 -85 346 -232 958
-232 965 0 3 0 8 1 13 0 4 137 6 304 5 l302 -3 2 -1255z m8151 -2101 l-3 -804
-3087 -3 -3088 -2 0 810 0 810 3083 2 c1695 2 3085 0 3090 -3 4 -3 6 -367 5
-810z"/>
<path d="M16573 26915 c-88 -19 -179 -70 -242 -135 -48 -48 -331 -553 -2399
-4275 -1290 -2321 -2356 -4249 -2369 -4285 -19 -50 -25 -85 -25 -150 -1 -220
136 -400 347 -455 53 -13 571 -15 4780 -15 4209 0 4727 2 4780 15 211 55 348
235 347 455 0 65 -6 100 -25 150 -39 105 -4678 8487 -4727 8543 -114 129 -302
190 -467 152z m653 -3046 c12 -11 25 -32 28 -45 5 -17 -84 -293 -289 -898
-162 -480 -295 -876 -295 -880 0 -3 210 -6 468 -6 277 0 485 -5 511 -11 111
-25 187 -126 179 -237 -2 -32 -13 -74 -23 -94 -11 -20 -427 -520 -925 -1110
-498 -589 -954 -1131 -1014 -1203 -60 -71 -121 -136 -135 -142 -49 -23 -114
11 -125 66 -4 18 86 295 292 906 l298 880 -496 5 c-359 4 -503 8 -522 17 -53
24 -116 92 -134 145 -18 57 -15 129 10 175 8 15 471 576 1030 1245 703 842
1023 1218 1039 1220 33 6 77 -9 103 -33z"/>
<path d="M25746 6065 c-189 -52 -351 -215 -401 -405 -20 -74 -19 -232 1 -301
60 -202 229 -361 432 -404 133 -29 243 -15 371 47 193 92 322 298 321 512 -1
242 -164 463 -399 543 -53 18 -87 22 -171 22 -58 -1 -127 -7 -154 -14z"/>
</g>
</svg>
