<?xml version="1.0" standalone="no"?>
<!DOCTYPE svg PUBLIC "-//W3C//DTD SVG 20010904//EN"
 "http://www.w3.org/TR/2001/REC-SVG-20010904/DTD/svg10.dtd">
<svg version="1.0" xmlns="http://www.w3.org/2000/svg"
 width="3333.000000pt" height="3333.000000pt" viewBox="0 0 3333.000000 3333.000000"
 preserveAspectRatio="xMidYMid meet">

<g transform="translate(0.000000,3333.000000) scale(0.100000,-0.100000)"
fill="#000000" stroke="none">
<path d="M26570 32523 c-647 -43 -1339 -319 -2119 -843 -572 -384 -1106 -834
-1742 -1470 -821 -820 -1605 -1756 -2394 -2860 -65 -91 -119 -166 -120 -168
-1 -1 -105 -9 -231 -17 -843 -55 -1937 -180 -2616 -298 l-77 -14 -22 71 c-119
391 -262 990 -338 1411 -161 899 -182 1589 -61 2092 82 340 226 547 436 625
51 19 80 22 209 22 164 0 246 -13 415 -66 297 -95 656 -278 1020 -523 362
-243 777 -577 1180 -949 63 -58 118 -106 122 -106 3 0 77 87 165 193 187 228
412 490 612 715 81 90 147 167 149 172 3 9 -181 183 -378 355 -1659 1449
-3119 1967 -4159 1474 -207 -98 -350 -198 -520 -363 -405 -395 -638 -952 -728
-1738 -22 -194 -25 -930 -5 -1158 66 -746 217 -1540 442 -2334 28 -98 49 -180
48 -181 -2 -1 -64 -17 -138 -35 -488 -119 -1130 -314 -1558 -474 -903 -337
-1603 -717 -2118 -1148 l-81 -68 -4449 -3 c-4247 -2 -4452 -3 -4524 -21 -534
-128 -907 -515 -1017 -1053 -17 -84 -18 -541 -18 -10438 0 -9958 1 -10353 18
-10440 56 -276 165 -478 366 -675 213 -209 459 -327 749 -360 69 -8 2859 -10
9767 -8 l9670 3 105 27 c270 68 478 186 658 372 172 178 273 366 339 631 16
66 18 410 23 5816 l5 5747 160 -115 c1323 -947 2474 -1215 3343 -779 251 126
473 304 645 516 577 713 741 1913 482 3518 -238 1470 -812 3205 -1682 5082
-200 431 -684 1395 -744 1481 -17 24 -30 27 -236 57 -508 75 -1522 186 -1539
169 -3 -2 34 -71 82 -153 588 -1013 1187 -2224 1618 -3272 937 -2279 1363
-4365 1116 -5474 -81 -364 -241 -591 -463 -660 -99 -31 -278 -30 -426 1 -572
121 -1364 611 -2214 1370 l-142 127 -2 3644 c-2 4026 2 3749 -65 3959 -146
460 -512 792 -998 907 -69 16 -163 18 -1138 21 l-1063 4 22 37 c89 148 276
445 407 648 l155 241 150 7 c410 17 1590 4 2172 -24 2728 -134 5130 -635 6645
-1386 425 -210 716 -402 938 -618 430 -417 431 -757 6 -1166 -396 -381 -1163
-783 -2092 -1097 -108 -36 -201 -69 -205 -73 -4 -4 26 -99 68 -211 112 -298
196 -539 300 -854 l92 -280 31 2 c36 3 390 125 635 220 704 270 1297 581 1752
918 259 191 533 449 697 655 502 630 621 1352 336 2030 -235 559 -777 1093
-1573 1549 -1385 794 -3574 1379 -6135 1641 -268 27 -659 61 -865 75 -44 3
-109 8 -145 10 -298 22 -931 48 -1492 61 l-277 6 52 67 c1297 1670 2552 2861
3652 3464 518 284 984 385 1232 268 228 -109 374 -428 428 -936 19 -177 22
-646 5 -860 -23 -303 -71 -671 -130 -992 -17 -90 -30 -167 -30 -171 0 -5 51
-19 113 -31 290 -58 611 -129 925 -206 188 -47 346 -85 351 -85 13 0 91 422
135 730 60 413 81 712 81 1145 0 389 -7 510 -46 780 -154 1071 -649 1767
-1443 2026 -222 73 -522 109 -766 92z m-7382 -6870 c-1 -5 -87 -147 -189 -318
-102 -170 -209 -352 -239 -402 l-52 -93 -358 0 -358 0 -32 76 c-90 216 -221
557 -216 562 14 13 721 108 1171 156 251 27 278 29 273 19z m-2815 -620 c37
-98 67 -181 67 -185 0 -5 -325 -8 -722 -7 l-723 1 135 45 c209 69 556 167 875
248 160 41 293 74 296 74 3 1 35 -79 72 -176z m6089 -1084 c128 -43 215 -121
277 -249 l36 -75 0 -10300 0 -10300 -33 -68 c-59 -119 -176 -210 -305 -236
-37 -8 -2841 -10 -9677 -9 l-9625 3 -52 21 c-110 45 -197 134 -240 244 -17 43
-18 501 -21 10315 -1 7100 1 10286 8 10321 33 158 143 283 295 336 47 16 569
17 9663 18 l9613 0 61 -21z"/>
<path d="M12510 21780 c-1762 -61 -3463 -687 -4848 -1787 -432 -344 -863 -764
-1219 -1190 -308 -369 -617 -819 -863 -1258 -218 -388 -529 -1089 -571 -1286
-32 -150 34 -328 155 -419 40 -30 2948 -1595 3193 -1719 166 -83 355 -59 490
63 77 70 107 131 157 321 125 472 296 853 557 1240 577 854 1498 1454 2511
1635 237 42 341 51 643 57 330 5 484 -5 755 -53 1102 -194 2077 -863 2660
-1824 224 -368 387 -779 475 -1195 32 -151 76 -244 145 -309 61 -57 156 -103
239 -117 133 -21 35 -66 1836 834 1756 878 1695 845 1761 949 40 63 64 150 64
235 0 68 -7 99 -54 238 -568 1677 -1659 3124 -3116 4132 -1104 763 -2405 1252
-3735 1402 -237 27 -386 39 -575 46 -319 11 -441 12 -660 5z m575 -870 c1591
-68 3071 -618 4302 -1597 880 -699 1613 -1628 2079 -2633 71 -154 193 -438
208 -487 7 -21 -62 -57 -1165 -608 -644 -322 -1172 -585 -1173 -583 -2 2 -22
59 -46 128 -173 506 -466 1019 -834 1465 -119 144 -452 479 -591 594 -796 659
-1701 1028 -2730 1112 -183 15 -695 6 -875 -15 -1117 -132 -2083 -596 -2855
-1371 -470 -471 -828 -1021 -1065 -1637 l-53 -138 -41 24 c-23 12 -536 288
-1141 611 -605 324 -1106 593 -1113 600 -10 9 2 45 63 181 815 1815 2333 3225
4214 3914 896 328 1869 480 2816 440z"/>
<path d="M12660 20460 c-115 -42 -208 -129 -262 -245 l-23 -50 -3 -532 c-3
-514 -2 -534 18 -590 66 -187 237 -302 433 -291 146 9 257 71 334 186 76 114
76 111 81 614 2 281 0 480 -7 534 -20 164 -104 285 -245 354 -63 31 -79 35
-170 38 -82 2 -112 -1 -156 -18z"/>
<path d="M10216 20009 c-221 -32 -378 -228 -364 -456 4 -71 19 -114 168 -503
89 -234 173 -447 186 -473 52 -105 145 -185 256 -218 145 -44 310 -10 418 87
108 97 165 256 141 390 -11 60 -312 858 -358 948 -80 159 -263 251 -447 225z"/>
<path d="M15235 20010 c-63 -10 -122 -32 -171 -63 -51 -32 -127 -114 -152
-163 -31 -62 -340 -874 -351 -924 -51 -222 95 -453 322 -510 81 -21 202 -9
280 27 74 35 157 107 192 168 39 66 356 905 368 973 22 126 -29 277 -125 372
-95 93 -235 140 -363 120z"/>
<path d="M7980 18652 c-223 -74 -349 -316 -282 -539 12 -38 36 -89 53 -114 55
-75 651 -730 692 -760 132 -95 332 -102 476 -16 145 87 230 269 203 433 -21
128 -44 160 -404 560 -328 363 -334 370 -411 409 -73 37 -85 40 -175 42 -73 2
-111 -1 -152 -15z"/>
<path d="M17324 18649 c-34 -11 -83 -37 -110 -58 -63 -47 -663 -710 -703 -776
-103 -171 -71 -399 77 -537 142 -133 354 -155 520 -55 77 46 700 736 743 822
108 218 20 474 -198 582 -69 34 -84 38 -172 40 -77 3 -108 -1 -157 -18z"/>
<path d="M20359 17863 c6 -10 19 -29 29 -42 l19 -24 5 37 c5 44 3 46 -34 46
-25 0 -27 -3 -19 -17z"/>
<path d="M5771 12249 c-226 -38 -392 -270 -354 -495 25 -144 117 -264 250
-327 l68 -32 2065 0 2065 0 70 34 c266 130 331 476 129 691 -59 63 -165 117
-254 130 -84 12 -3966 11 -4039 -1z"/>
<path d="M15757 12249 c-88 -13 -174 -59 -241 -128 -206 -217 -146 -556 122
-688 l76 -38 2065 0 2066 0 68 32 c131 62 227 193 247 336 29 203 -84 388
-285 468 l-60 24 -2000 1 c-1100 1 -2026 -2 -2058 -7z"/>
<path d="M5715 10932 c-161 -56 -270 -182 -298 -348 -22 -128 22 -262 119
-365 71 -74 154 -116 256 -129 99 -13 3908 -13 4008 0 245 32 412 248 378 492
-19 140 -115 269 -245 331 l-68 32 -2050 2 c-1925 2 -2053 1 -2100 -15z"/>
<path d="M15695 10932 c-304 -105 -402 -473 -188 -703 56 -60 104 -93 182
-123 l56 -21 1975 -3 c1322 -2 2001 1 2055 8 203 26 354 170 386 369 29 182
-75 371 -251 455 l-65 31 -2050 2 c-1925 2 -2053 1 -2100 -15z"/>
<path d="M5729 9636 c-159 -44 -283 -184 -312 -350 -39 -229 127 -458 358
-496 88 -14 3972 -13 4051 1 254 47 412 304 340 552 -37 128 -155 247 -283
287 -64 20 -88 20 -2087 19 -1601 -1 -2031 -3 -2067 -13z"/>
<path d="M15689 9627 c-157 -53 -260 -174 -290 -339 -32 -173 62 -365 220
-452 108 -58 10 -56 2157 -56 1369 0 1988 3 2030 11 230 42 389 263 353 489
-11 73 -44 152 -86 207 -43 56 -137 120 -210 143 -64 20 -89 20 -2087 20
l-2021 -1 -66 -22z"/>
<path d="M5730 8334 c-210 -56 -348 -272 -312 -487 31 -178 165 -319 340 -356
38 -8 607 -11 2045 -11 2153 0 2044 -3 2149 51 23 12 68 46 99 76 243 231 134
642 -195 729 -79 21 -4046 19 -4126 -2z"/>
<path d="M15727 8339 c-214 -50 -368 -280 -329 -489 34 -183 166 -322 340
-359 38 -8 607 -11 2045 -11 2178 0 2048 -3 2158 57 68 36 145 118 179 188
121 248 -15 539 -285 611 -41 11 -411 14 -2060 13 -1144 -1 -2026 -5 -2048
-10z"/>
<path d="M5743 7035 c-174 -47 -295 -179 -325 -355 -37 -216 103 -430 318
-485 54 -14 284 -15 2090 -13 l2029 3 67 32 c89 42 141 85 189 156 50 76 70
143 70 242 0 210 -145 386 -351 425 -34 6 -745 10 -2044 9 -1680 0 -1999 -3
-2043 -14z"/>
<path d="M15723 7035 c-172 -47 -292 -178 -325 -355 -31 -162 57 -349 203
-437 113 -67 -35 -63 2179 -63 1315 0 2020 4 2049 11 217 50 366 270 330 489
-29 179 -171 326 -349 360 -34 6 -745 10 -2044 9 -1680 0 -1999 -3 -2043 -14z"/>
<path d="M5753 5735 c-173 -38 -305 -178 -336 -359 -31 -182 67 -368 241 -453
l76 -38 2040 -3 c2019 -2 2042 -2 2107 18 131 39 247 156 285 288 19 63 20
171 4 233 -44 164 -184 291 -351 318 -43 7 -714 11 -2034 10 -1620 0 -1981 -3
-2032 -14z"/>
<path d="M15750 5739 c-84 -14 -169 -60 -234 -128 -209 -220 -144 -564 133
-695 l66 -31 2035 -3 c2275 -3 2100 -9 2218 68 180 116 247 354 155 549 -34
73 -131 170 -204 204 -31 14 -85 31 -120 36 -80 14 -3968 13 -4049 0z"/>
</g>
</svg>
